<?xml version="1.0" standalone="no"?>
<!DOCTYPE svg PUBLIC "-//W3C//DTD SVG 20010904//EN"
 "http://www.w3.org/TR/2001/REC-SVG-20010904/DTD/svg10.dtd">
<svg version="1.0" xmlns="http://www.w3.org/2000/svg"
 width="270.000000pt" height="270.000000pt" viewBox="0 0 270.000000 270.000000"
 preserveAspectRatio="xMidYMid meet">
<metadata>
Created by potrace 1.11, written by Peter Selinger 2001-2013
</metadata>
<g transform="translate(0.000000,270.000000) scale(0.100000,-0.100000)"
fill="#000000" stroke="none">
<path d="M130 1475 l0 -975 220 0 220 0 0 340 0 340 214 0 c149 0 238 5 293
15 43 8 79 15 81 15 1 0 2 -252 2 -560 l0 -560 220 0 220 0 0 340 0 340 213 0
c228 0 288 7 409 46 97 32 178 84 248 160 69 75 105 141 130 240 25 96 27 263
5 349 -51 198 -191 354 -379 424 -116 43 -184 51 -434 51 l-237 1 -29 64 c-54
122 -189 241 -330 294 -128 48 -170 51 -632 51 l-434 0 0 -975z m873 565 c50
-18 110 -71 132 -117 22 -45 25 -160 6 -215 -15 -45 -77 -103 -128 -118 -21
-7 -128 -15 -240 -17 l-203 -5 0 247 0 247 198 -5 c124 -3 211 -9 235 -17z
m1030 -410 c50 -18 110 -71 132 -117 22 -45 25 -160 6 -215 -15 -45 -77 -103
-128 -118 -21 -7 -128 -15 -240 -17 l-203 -5 0 247 0 247 198 -5 c124 -3 211
-9 235 -17z"/>
</g>
</svg>
